# xmcd CD database file
#
# Track frame offsets:
#	150
#	11163
#	21399
#	33133
#	42381
#	54384
#	66576
#	78721
#	93581
#	104312
#	117434
#	129448
#	145839
#	158152
#	168766
#	180192
#	194966
#	207026
#
# Disc length: 2974 seconds
#
# Revision: 0
# Processed by: cddbd v1.4PL0 Copyright (c) Steve Scherf et al.
# Submitted via: CdAid 2001.05.15.01
#
DISCID=fb0b9c12
DTITLE=Tom Jones - The Collection
DYEAR=1900
DGENRE=
TTITLE0=Green Green Grass Of Home
TTITLE1=What's New Pussycat
TTITLE2=Love Me Tonight
TTITLE3=Daughter of Darkness
TTITLE4=Oh Pretty Woman
TTITLE5=You Don't Have to Say You Love Me
TTITLE6=Funny How Time Slips Away
TTITLE7=Georgia on my Mind
TTITLE8=Say You'll Stay Until Tomorrow
TTITLE9=As Time Goes By
TTITLE10=Delilah
TTITLE11=She's a Lady
TTITLE12=I Who Have Nothing
TTITLE13=Release Me
TTITLE14=Send In the Clowns
TTITLE15=Unchained Melody
TTITLE16=Endless Love
TTITLE17=My Way
EXTD=
EXTT0=
EXTT1=
EXTT2=
EXTT3=
EXTT4=
EXTT5=
EXTT6=
EXTT7=
EXTT8=
EXTT9=
EXTT10=
EXTT11=
EXTT12=
EXTT13=
EXTT14=
EXTT15=
EXTT16=
EXTT17=
PLAYORDER=
